<svg width="223" height="175" viewBox="0 0 223 175" fill="none" xmlns="http://www.w3.org/2000/svg">
<g clip-path="url(#clip0_1_7)">
<path d="M173.724 104.647C173.219 105.596 172.77 106.579 172.196 107.486C168.709 113.014 165.424 118.702 161.613 124.003C155.901 131.913 149.317 139.148 141.986 145.57C136.864 150.11 131.466 154.324 125.821 158.188C120.518 161.829 114.93 165.033 109.112 167.768C97.153 173.296 84.5288 175.806 71.2931 174.645C62.3888 173.862 53.8726 171.682 45.861 167.679C36.0476 162.772 27.7268 155.924 20.7893 147.458C15.0935 140.507 10.4438 132.753 6.98866 124.445C0.981109 110.054 -0.832316 95.1089 0.33246 79.6593C0.981108 71.0886 2.88986 62.7844 5.75879 54.7488C8.56495 46.8978 12.5568 39.5982 17.4926 32.8478C23.2654 24.9046 30.3768 18.0382 38.505 12.559C45.5844 7.78769 53.3147 4.42298 61.5007 2.27798C67.9381 0.607134 74.5765 -0.150259 81.2228 0.0278256C82.1667 0.0511917 83.1106 0.0278256 84.0545 0.0278256L84.1475 0.460092C83.3338 0.927413 82.548 1.44147 81.7041 1.83869C77.1031 4.00473 73.1252 7.08904 69.1217 10.1734C67.7267 11.2552 65.8924 11.8814 64.172 12.4422C55.2932 15.3326 48.2278 20.7956 42.1086 27.7143C34.0528 36.827 28.7916 47.4749 25.6158 59.0925C22.1284 71.834 20.4545 84.877 22.1284 98.0881C22.9656 104.954 24.2368 111.76 25.9343 118.463C28.0267 126.553 31.7093 134.062 36.3964 140.986C41.2647 148.194 47.1979 154.433 54.7166 158.894C63.1955 163.924 72.344 165.952 82.2434 164.969C90.8735 164.104 98.4527 160.901 105.241 155.685C111.041 151.253 115.795 145.588 119.163 139.096C122.99 131.731 126.444 124.169 130.218 116.774C135.393 106.628 141.952 97.5974 151.519 91.111C158.178 86.5888 165.625 83.3673 173.47 81.615C181.212 79.8626 189.019 79.1803 196.917 79.7995C203.62 80.3276 215.398 82.4329 223.009 86.1387C222.416 86.4144 222.019 86.6691 221.586 86.793C215.644 88.4964 211.21 92.326 207.405 96.9969C202.825 102.605 199.77 109.098 196.798 115.631C193.311 123.291 189.982 131.037 185.406 138.119C179.201 147.699 171.517 155.856 161.969 162.214C155.741 166.359 149.094 169.598 141.975 171.715C132.633 174.495 123.055 175.64 113.295 174.656C113.036 174.591 112.783 174.5 112.542 174.385C143.03 159.929 164.671 137.792 174.447 105.124L173.724 104.647Z" fill="#067E51"/>
<path d="M197.387 72.61C196.55 72.61 196.201 72.6287 195.857 72.61C189.461 72.1777 183.107 72.4932 176.82 73.797C175.674 74.0306 175.693 73.3156 175.551 72.5889C174.744 68.4298 174.233 64.1772 173.047 60.1372C169.578 48.2999 164.608 37.2385 156.34 27.8266C149.087 19.5621 140.489 13.5733 129.809 10.9774C119.884 8.55664 110.11 9.23192 100.664 13.3887C95.3536 15.7253 90.7688 19.1228 86.7863 23.2773C79.5605 30.8128 74.7828 39.804 71.507 49.7042C65.539 67.7405 64.0674 86.1553 66.5201 104.944C67.7384 114.29 69.7889 123.462 73.4274 132.196C75.9336 138.215 78.7979 144.059 82.9595 149.122C84.9798 151.573 87.1792 153.877 89.5994 156.585C86.5584 157.053 83.6686 157.754 80.7648 157.866C77.2356 157.992 73.6808 157.676 70.1516 157.377C69.2891 157.305 68.2917 156.737 67.6802 156.09C60.5753 148.592 55.3583 139.893 51.5175 130.308C47.5024 120.3 45.2403 109.921 44.2638 99.1889C43.1723 87.0128 43.9359 74.7407 46.5283 62.7962C48.3538 54.3514 51.3628 46.2096 55.4652 38.6147C59.5268 31.0535 64.5091 24.2212 70.6793 18.2863C76.0266 13.1294 82.0574 8.89545 88.8369 5.92328C98.9851 1.48374 109.663 -0.322451 120.739 0.0607518C130.102 0.38554 139.15 2.21509 147.708 5.95366C156.611 9.79766 164.73 15.2638 171.655 22.0762C176.853 27.1664 181.389 32.8977 185.155 39.1334C189.554 46.4564 193.044 54.2186 195.055 62.5836C195.838 65.8058 196.566 69.0677 197.387 72.61Z" fill="#067E51"/>
<path d="M105.26 18.8681C108.296 18.1811 110.84 17.2815 113.451 17.0923C117.124 16.8236 120.844 16.9778 124.531 17.1787C125.596 17.2348 126.803 17.8587 127.628 18.5807C132.175 22.5856 135.821 27.364 139.129 32.4344C145.639 42.4164 149.742 53.4008 152.295 64.9646C153.346 69.7383 153.69 74.6709 154.355 79.531C154.494 80.5451 154.264 81.2601 153.267 81.8092C148.575 84.391 144.232 87.5658 140.343 91.2561C138.332 93.1628 136.497 95.261 134.605 97.2939C133.952 97.9949 133.368 98.7659 132.557 99.738C132.698 96.7541 132.88 94.1068 132.943 91.4547C133.159 82.3419 132.478 73.311 130.604 64.3501C129.046 56.9337 126.903 49.7627 123.748 42.8767C120.028 34.757 115.09 27.5416 108.51 21.4991C107.62 20.6906 106.632 19.978 105.26 18.8681Z" fill="#067E51"/>
</g>
<defs>
<clipPath id="clip0_1_7">
<rect width="223" height="175" fill="white"/>
</clipPath>
</defs>
</svg>
