<svg width="40" height="32" viewBox="0 0 40 32" fill="none" xmlns="http://www.w3.org/2000/svg">
<g clip-path="url(#clip0_1_16)">
<path d="M30.8114 18.5499C30.7219 18.7181 30.6424 18.8924 30.5405 19.0532C29.922 20.0331 29.3394 21.0412 28.6635 21.981C27.6505 23.3831 26.4827 24.6656 25.1825 25.804C24.2741 26.6087 23.3166 27.3556 22.3155 28.0406C21.3749 28.686 20.3838 29.2539 19.352 29.7387C17.2309 30.7187 14.9919 31.1635 12.6445 30.9577C11.0652 30.8189 9.55478 30.4325 8.13385 29.723C6.39335 28.8532 4.91758 27.6392 3.68715 26.1386C2.67696 24.9065 1.85228 23.532 1.23949 22.0593C0.173995 19.5083 -0.147632 16.8592 0.058951 14.1206C0.173994 12.6014 0.512528 11.1294 1.02136 9.70499C1.51906 8.31332 2.22705 7.01941 3.10245 5.82283C4.12631 4.41483 5.38759 3.19768 6.8292 2.22646C8.08478 1.38069 9.45582 0.784265 10.9077 0.404042C12.0494 0.10787 13.2268 -0.0263854 14.4056 0.0051818C14.573 0.00932365 14.7404 0.0051818 14.9078 0.0051818L14.9243 0.0818051C14.78 0.164642 14.6406 0.255764 14.4909 0.326175C13.6749 0.710125 12.9694 1.25685 12.2593 1.80357C12.0119 1.99534 11.6866 2.10634 11.3815 2.20575C9.80672 2.7181 8.55361 3.68646 7.46833 4.91286C6.03956 6.52819 5.10643 8.41563 4.54317 10.475C3.92466 12.7335 3.62777 15.0455 3.92466 17.3873C4.07314 18.6044 4.2986 19.8107 4.59966 20.999C4.97077 22.4329 5.62392 23.7641 6.4552 24.9913C7.31865 26.2691 8.37094 27.375 9.70446 28.1656C11.2083 29.0574 12.8308 29.4169 14.5866 29.2425C16.1172 29.0893 17.4614 28.5214 18.6655 27.597C19.6941 26.8113 20.5372 25.8072 21.1346 24.6562C21.8133 23.3507 22.426 22.0104 23.0953 20.6995C24.0131 18.9011 25.1764 17.3003 26.8731 16.1505C28.0542 15.3489 29.375 14.7779 30.7665 14.4673C32.1396 14.1566 33.5242 14.0357 34.9249 14.1455C36.1137 14.2391 38.2027 14.6123 39.5527 15.2692C39.4475 15.318 39.377 15.3632 39.3003 15.3851C38.2464 15.6871 37.46 16.3659 36.785 17.1939C35.9727 18.1879 35.4309 19.3389 34.9039 20.497C34.2854 21.8547 33.6949 23.2277 32.8834 24.4831C31.7829 26.1813 30.4201 27.6272 28.7266 28.7542C27.622 29.489 26.4431 30.063 25.1805 30.4383C23.5237 30.9312 21.8248 31.1341 20.0938 30.9597C20.0479 30.9481 20.0031 30.932 19.9602 30.9117C25.3677 28.3491 29.2058 24.4251 30.9397 18.6344L30.8114 18.5499Z" fill="white"/>
<path d="M35.0081 12.8708C34.8597 12.8708 34.7978 12.8741 34.7368 12.8708C33.6024 12.7942 32.4755 12.8501 31.3605 13.0812C31.1572 13.1226 31.1605 12.9959 31.1354 12.8671C30.9923 12.1298 30.9016 11.376 30.6913 10.6599C30.0761 8.56161 29.1945 6.60086 27.7282 4.93252C26.4417 3.46755 24.9169 2.40599 23.0226 1.94583C21.2623 1.51673 19.5288 1.63643 17.8534 2.37327C16.9117 2.78745 16.0985 3.38968 15.3922 4.1261C14.1106 5.46185 13.2633 7.05563 12.6823 8.81054C11.6238 12.0076 11.3628 15.2718 11.7978 18.6023C12.0139 20.259 12.3775 21.8847 13.0229 23.4329C13.4674 24.4999 13.9754 25.5358 14.7135 26.4333C15.0718 26.8678 15.4619 27.2762 15.8911 27.7562C15.3518 27.839 14.8392 27.9633 14.3242 27.9832C13.6983 28.0055 13.0678 27.9496 12.4419 27.8966C12.2889 27.8838 12.112 27.7831 12.0035 27.6684C10.7434 26.3393 9.81813 24.7973 9.13695 23.0983C8.42483 21.3243 8.02362 19.4845 7.85044 17.5822C7.65685 15.4238 7.79228 13.2485 8.25206 11.1312C8.57583 9.63428 9.1095 8.19108 9.8371 6.84481C10.5575 5.50451 11.4411 4.29343 12.5355 3.2414C13.4839 2.3273 14.5535 1.57679 15.7559 1.04995C17.5557 0.262994 19.4496 -0.0571696 21.414 0.0107568C23.0745 0.0683285 24.6794 0.392634 26.1972 1.05533C27.7762 1.73672 29.2162 2.70565 30.4443 3.91321C31.3663 4.81549 32.1709 5.83142 32.8388 6.93676C33.6189 8.23482 34.2379 9.61074 34.5945 11.0935C34.7335 11.6647 34.8626 12.2429 35.0081 12.8708Z" fill="white"/>
<path d="M18.6688 3.34454C19.2073 3.22277 19.6584 3.06331 20.1215 3.02976C20.773 2.98213 21.4327 3.00946 22.0867 3.04508C22.2756 3.05502 22.4896 3.16561 22.636 3.29359C23.4425 4.00351 24.0891 4.85051 24.6758 5.7493C25.8304 7.5187 26.5582 9.46578 27.0109 11.5156C27.1973 12.3618 27.2583 13.2361 27.3762 14.0976C27.401 14.2774 27.3602 14.4041 27.1833 14.5014C26.3512 14.9591 25.5809 15.5219 24.8911 16.176C24.5344 16.514 24.209 16.8859 23.8734 17.2463C23.7575 17.3705 23.654 17.5072 23.5101 17.6795C23.5353 17.1506 23.5674 16.6813 23.5786 16.2112C23.6169 14.5959 23.4961 12.9951 23.1638 11.4067C22.8875 10.092 22.5073 8.82089 21.9478 7.60029C21.288 6.161 20.4122 4.88199 19.2453 3.81091C19.0873 3.6676 18.9121 3.54127 18.6688 3.34454Z" fill="white"/>
</g>
<defs>
<clipPath id="clip0_1_16">
<rect width="39.551" height="31.0204" fill="white"/>
</clipPath>
</defs>
</svg>
